<?xml version="1.0" encoding="UTF-8" standalone="no"?>
<!DOCTYPE svg PUBLIC "-//W3C//DTD SVG 20010904//EN"
"http://www.w3.org/TR/2001/REC-SVG-20010904/DTD/svg10.dtd">
<!-- Created with Sodipodi ("http://www.sodipodi.com/") -->
<svg
   xmlns="http://www.w3.org/2000/svg"
   xmlns:odm="http://product.corel.com/CGS/11/cddns/"
   xml:space="preserve"
   width="328pt"
   height="662pt"
   style="shape-rendering:geometricPrecision; text-rendering:geometricPrecision; image-rendering:optimizeQuality; fill-rule:evenodd"
   viewBox="0 0 8268 11692"
   xmlns:sodipodi="http://sodipodi.sourceforge.net/DTD/sodipodi-0.dtd"
   xmlns:xlink="http://www.w3.org/1999/xlink"
   id="svg758"
   sodipodi:version="0.34"
   sodipodi:docname="D:\Dokumenty\Wikipedie\images\svg\ASL\Sign language_W.svg"><sodipodi:namedview
   id="base" /><defs
   id="defs759"><style
   type="text/css"
   id="style760"><![CDATA[
    .fil0 {fill:#1F1A17}
   ]]></style></defs><g
   id="Layer 1"
   transform="matrix(1.81479,0,0,1.815038,-4302.051,-4190.25)"><path
   class="fil0"
   d="M4635 1085c74,-18 150,-37 229,-55 79,-19 123,-28 132,-28 74,0 134,23 181,69 64,111 108,220 131,327 24,106 35,243 35,409 0,74 -4,188 -14,341 -9,152 -14,266 -14,340 0,139 12,280 35,423 23,144 35,262 35,355 0,148 -14,321 -42,520 -28,200 -46,355 -55,466 0,9 11,16 34,21 23,4 44,11 63,20 213,-379 377,-819 493,-1319 116,-500 197,-852 243,-1056 46,-203 102,-317 167,-340 64,-23 143,-35 236,-35 176,0 287,61 333,181 0,296 -23,657 -69,1083 -47,426 -79,750 -98,973 -203,1009 -363,1752 -479,2229 -116,477 -261,914 -437,1312 -28,148 -111,419 -250,813 -139,393 -209,706 -209,937 0,111 14,222 42,334 19,157 19,250 0,277 -157,102 -356,179 -597,229 -241,51 -472,100 -695,146 -203,-27 -416,-60 -638,-97 -223,-37 -403,-88 -542,-153l-14 -1250c-167,-240 -271,-569 -313,-986 -41,-416 -81,-815 -118,-1194 0,-213 26,-426 77,-639 51,-213 169,-514 354,-903 83,-55 143,-106 181,-153 -56,-74 -84,-166 -84,-277 0,-65 19,-116 56,-153l250 -292c-28,-74 -47,-169 -56,-285 -9,-115 -14,-220 -14,-312 0,-176 -7,-322 -21,-438 -13,-115 -44,-224 -90,-326 -9,-176 -14,-310 -14,-403 0,-157 14,-280 42,-368 28,-88 88,-164 181,-229 138,-28 212,-42 222,-42 37,0 78,14 125,42 139,185 229,509 271,972 41,463 99,778 173,945 19,194 35,347 49,458 14,111 48,222 104,333 46,-9 74,-51 83,-125 10,-74 19,-120 28,-139l0 -166c0,-111 9,-232 28,-361 18,-130 42,-260 69,-389 0,-139 -2,-283 -7,-431 -4,-148 -7,-296 -7,-444 0,-269 12,-486 35,-653 23,-167 77,-338 160,-514zm0 97c-37,287 -60,503 -70,646 -9,144 -13,299 -13,465 55,-27 131,-46 229,-55 97,-9 150,-14 159,-14 112,0 190,5 237,14 9,-111 20,-218 34,-320 14,-101 21,-217 21,-347 0,-92 -5,-162 -14,-208 9,-93 -18,-167 -83,-222 -65,-56 -148,-84 -250,-84 -111,0 -195,42 -250,125zm1750 459c-111,101 -190,296 -236,583 -47,287 -79,458 -97,514 46,-9 115,-14 208,-14 65,0 148,7 250,21 102,14 162,21 180,21l84 -848c0,-101 -37,-182 -111,-243 -74,-60 -167,-71 -278,-34zm-2792 0c-166,-19 -282,9 -347,83 -28,83 -46,190 -56,319 -9,130 -13,204 -13,223 0,166 13,333 41,500 37,55 79,83 125,83 130,-37 264,-74 403,-111 -74,9 -148,46 -222,111 -74,65 -153,134 -236,208 0,139 2,280 7,424 4,143 30,266 76,368l597 -208c-37,-232 -76,-505 -118,-820 -42,-315 -76,-620 -104,-916l-153 -264zm959 805l0 764c92,-9 173,-16 243,-21 69,-4 122,-7 159,-7 111,0 218,19 320,56l-56 -861c-65,-65 -157,-97 -278,-97 -176,0 -305,55 -388,166zm1611 375c-111,19 -190,102 -236,250 -38,195 -65,329 -84,403 37,-9 93,-14 167,-14 74,0 164,14 271,42 106,28 210,51 312,69l70 -666c-47,-65 -121,-98 -223,-98 -92,10 -185,14 -277,14zm-1611 528c-38,102 -61,227 -70,375 -9,148 -14,315 -14,500 139,-28 262,-49 368,-63 107,-13 202,-16 285,-6 28,-75 53,-190 76,-348 23,-157 49,-291 77,-402 -65,-65 -153,-98 -264,-98 -158,19 -310,33 -458,42zm1222 319l-222 598c222,55 391,104 506,145 116,42 206,100 271,174 65,-287 130,-579 195,-875 -102,-37 -190,-65 -264,-83 -74,-19 -148,-28 -222,-28 -102,0 -190,23 -264,69zm-1847 42c-28,46 -93,79 -195,97 -102,19 -171,47 -208,84 74,0 155,32 243,97 88,65 187,134 298,208 -18,-46 -34,-132 -48,-257 -14,-125 -44,-201 -90,-229zm-778 611c-28,93 2,153 90,181 88,28 164,51 229,69 102,-111 209,-222 320,-333 -37,-139 -111,-208 -223,-208 -74,0 -145,25 -215,76 -69,51 -136,123 -201,215zm1458 -55c65,18 153,16 264,-7 111,-23 190,-30 236,-21 -46,-37 -102,-56 -167,-56 -37,0 -92,14 -166,42 -74,28 -130,42 -167,42zm-708 -28l0 69 -361 348 -445 -112c158,241 283,417 375,528 93,111 192,183 299,215 106,33 210,95 312,188 102,93 190,157 264,194l-180 14c46,223 148,371 305,445 -9,28 -30,37 -62,28 -33,-10 -54,-5 -63,13 46,84 153,174 320,271 166,97 259,155 277,174 -148,0 -282,-42 -402,-125 -121,-83 -236,-190 -348,-320 -27,56 -90,151 -187,285 -97,134 -164,248 -201,340 0,121 -5,250 -14,389 -10,139 -19,278 -28,417 0,157 16,294 48,410 33,115 95,215 188,298 111,47 241,88 389,125 148,37 287,56 417,56 129,0 259,-28 388,-83 315,-528 473,-1116 473,-1764 0,-65 0,-135 0,-209 -19,-111 -28,-190 -28,-236l-97 -180c-28,27 -72,88 -132,180 -61,93 -100,148 -118,167 -10,-46 2,-95 34,-146 33,-51 63,-95 91,-132 27,-37 46,-72 55,-104 9,-32 14,-58 14,-76 0,-75 -42,-156 -125,-244 -83,-88 -155,-166 -215,-236 -60,-69 -153,-220 -278,-451 -125,-232 -248,-375 -368,-431 -111,121 -218,241 -319,362 74,-65 134,-119 180,-160 46,-42 88,-67 125,-77 -46,37 -120,116 -222,237 -102,120 -199,189 -292,208 0,-83 40,-162 118,-236 79,-74 160,-148 243,-222 0,-112 37,-158 111,-139 -185,-93 -365,-186 -541,-278zm1847 180c-130,0 -310,-11 -542,-34 -231,-23 -370,-35 -416,-35 -74,0 -176,9 -306,28 93,28 197,113 313,257 115,143 173,220 173,229 74,-9 130,-60 167,-153 37,-93 65,-157 83,-194 28,64 -9,171 -111,319 -46,37 -69,79 -69,125 0,46 32,109 97,188 65,78 106,136 125,173 28,19 69,28 125,28 65,0 160,-23 285,-69 125,-47 196,-70 215,-70 -56,56 -139,107 -250,153 -111,46 -195,79 -250,97 102,0 204,0 305,0 65,0 116,19 153,56 -102,18 -187,32 -257,41 -69,10 -113,33 -132,70 139,83 246,164 320,243 74,79 111,178 111,298 -46,10 -86,-20 -118,-90 -33,-69 -63,-109 -90,-118 9,37 30,174 62,410 32,236 58,410 76,521l320 -1250 -208 -98 263 0c74,-213 112,-476 112,-791l-556 -334zm-2667 375c-185,84 -277,237 -277,459 111,74 210,159 298,257 88,97 174,215 257,354 130,139 234,234 313,285 78,51 164,62 257,34 74,-27 97,-65 69,-111 -74,19 -139,28 -194,28 -75,0 -130,-19 -167,-56 -37,-37 -56,-83 -56,-138 0,-84 42,-158 125,-223 84,0 144,3 181,7 37,5 65,21 83,49l0 -167c-37,-65 -116,-120 -236,-166 -120,-47 -194,-79 -222,-98 -37,0 -88,26 -153,77 -65,51 -111,67 -139,48 93,-92 158,-157 195,-194 -111,-148 -223,-296 -334,-445zm-305 528l-181 667c84,-9 190,-39 320,-90 129,-51 213,-81 250,-91 -19,-55 -77,-106 -174,-152 -97,-47 -150,-88 -160,-125 28,-10 47,-10 56,0 9,9 18,13 28,13 -19,-64 -35,-115 -49,-152 -14,-37 -44,-61 -90,-70zm1014 389l-42 70 83 -14 -41 -56zm-98 139c-18,56 0,111 56,167 130,55 208,37 236,-56 0,-93 -51,-139 -153,-139 -55,0 -102,9 -139,28zm-861 111c-111,56 -187,109 -229,160 -42,51 -58,127 -48,229 64,194 111,528 138,1000 28,472 93,815 195,1028 129,83 268,125 417,125 55,0 97,-5 125,-14 120,-93 217,-148 291,-167 37,19 37,46 0,84 -37,37 -46,69 -28,97 47,18 91,2 132,-49 42,-51 67,-81 77,-90 -84,-83 -148,-134 -195,-153 -92,-213 -139,-458 -139,-736 0,-435 116,-806 348,-1111l-84 69c-139,324 -277,648 -416,973 0,-121 37,-271 111,-452 74,-180 162,-382 264,-604 -74,-28 -190,-113 -348,-257 -157,-143 -287,-215 -388,-215 -65,0 -139,28 -223,83zm1139 2500c84,102 197,164 340,188 144,23 322,34 535,34 -166,0 -324,-16 -472,-48 -148,-33 -282,-91 -403,-174zm-694 181c-10,9 -84,14 -222,14 -47,0 -75,13 -84,41 0,121 5,250 14,389 9,139 19,273 28,403 0,111 -5,194 -14,250l500 69 0 -166c0,-102 14,-260 42,-473 27,-213 41,-370 41,-472 -74,28 -127,53 -159,77 -33,23 -81,34 -146,34 -47,0 -84,-14 -111,-41 120,-28 210,-58 270,-91 61,-32 119,-85 174,-159 -37,0 -86,14 -146,41 -60,28 -122,56 -187,84zm444 -42c-28,56 -51,155 -69,299 -19,143 -33,238 -42,284 19,-65 42,-162 70,-291 27,-130 41,-227 41,-292zm111 0c-55,176 -106,375 -152,597 -47,222 -70,426 -70,611 74,19 148,33 222,42 -37,-120 -55,-259 -55,-417 0,-92 9,-250 28,-472 18,-222 27,-343 27,-361zm139 28c-37,74 -60,183 -69,326 -10,144 -16,269 -21,375 -5,107 -7,206 -7,299 0,139 51,231 153,278 287,-47 479,-81 576,-105 97,-23 220,-62 368,-118 9,-55 14,-139 14,-250 0,-92 -9,-201 -28,-326 -18,-125 -37,-248 -55,-368 -130,18 -232,28 -306,28 -241,0 -449,-47 -625,-139zm1070 111l14 -83 -14 83zm0 403l14 -223 -14 223zm125 291l14 -319 -14 319zm-778 -4444l208 -320 -208 320zm-111 -403l-222 208 222 -208z"
   id="path762" /></g></svg>
