<?xml version="1.0" encoding="UTF-8" standalone="no"?>
<!DOCTYPE svg PUBLIC "-//W3C//DTD SVG 20010904//EN"
"http://www.w3.org/TR/2001/REC-SVG-20010904/DTD/svg10.dtd">
<!-- Created with Sodipodi ("http://www.sodipodi.com/") -->
<svg
   xmlns="http://www.w3.org/2000/svg"
   xmlns:odm="http://product.corel.com/CGS/11/cddns/"
   xml:space="preserve"
   width="283pt"
   height="678pt"
   style="shape-rendering:geometricPrecision; text-rendering:geometricPrecision; image-rendering:optimizeQuality; fill-rule:evenodd"
   viewBox="0 0 8268 11692"
   xmlns:sodipodi="http://sodipodi.sourceforge.net/DTD/sodipodi-0.dtd"
   xmlns:xlink="http://www.w3.org/1999/xlink"
   id="svg746"
   sodipodi:version="0.34"
   sodipodi:docname="D:\Dokumenty\Wikipedie\images\svg\ASL\Sign language_U.svg"><sodipodi:namedview
   id="base" /><defs
   id="defs747"><style
   type="text/css"
   id="style748"><![CDATA[
    .fil0 {fill:#1F1A17}
   ]]></style></defs><g
   id="Layer 1"
   transform="matrix(2.103334,0,0,2.103469,-3879.703,-5453.833)"><path
   class="fil0"
   d="M4678 733c166,0 305,93 416,278 10,74 17,134 21,180 5,47 40,70 104,70 65,-19 125,-19 181,0 56,18 120,65 194,139 65,194 98,398 98,611 0,139 -19,347 -56,625 -37,278 -55,491 -55,639 0,92 4,162 13,208 -74,500 -143,1000 -208,1500 0,111 12,215 35,313 23,97 76,305 160,625 83,319 125,557 125,715 0,130 -5,220 -14,271 -10,51 -37,118 -84,201 -46,83 -136,287 -271,611 -134,324 -289,542 -465,653 -74,167 -136,361 -187,583 -51,223 -109,496 -174,820 -28,37 -69,60 -125,69 -55,9 -160,40 -312,90 -153,51 -364,77 -632,77 -186,0 -359,-23 -521,-70 -162,-46 -303,-118 -424,-215 -120,-97 -215,-178 -285,-243 -69,-65 -104,-139 -104,-222 0,-65 23,-120 70,-167 120,-166 180,-347 180,-541 0,-139 -60,-373 -180,-702 -121,-329 -181,-562 -181,-701 0,-93 5,-162 14,-209 9,-101 -5,-298 -42,-590 -37,-292 -55,-460 -55,-507 0,-176 30,-324 90,-444 60,-121 174,-218 340,-292 167,19 290,-51 368,-208 79,-158 158,-320 237,-486 78,-167 164,-329 257,-486 92,-158 231,-237 416,-237 93,-407 171,-743 236,-1007 65,-263 137,-469 216,-618 78,-148 145,-393 201,-736 56,-342 190,-541 403,-597zm-195 195c0,148 -37,354 -111,618 -74,263 -111,419 -111,465 93,9 188,18 285,28 97,9 183,37 257,83 139,-259 208,-532 208,-819 0,-112 -14,-218 -42,-320 -74,-74 -166,-111 -277,-111 -74,0 -144,18 -209,56zm639 513c0,121 -37,287 -111,500 -74,213 -111,380 -111,500l611 14c19,-102 28,-236 28,-402 -9,-223 -14,-394 -14,-514 -46,-93 -134,-139 -264,-139 -46,0 -93,14 -139,41zm-819 695c-111,65 -199,180 -264,347 -56,204 -93,352 -111,445 74,-19 129,-28 166,-28 65,0 160,25 285,76 125,51 206,81 243,90l167 -805c-46,-56 -104,-90 -174,-104 -69,-14 -173,-21 -312,-21zm625 417c-74,74 -118,192 -132,354 -14,162 -26,280 -35,354 232,18 463,37 695,55l27 -666c-74,-65 -213,-97 -416,-97l-139 0zm-584 513l-194 -41 194 41zm-458 0l-125 584c93,9 176,51 250,125 74,74 130,162 167,264 102,46 176,41 222,-14 28,-130 62,-285 104,-466 42,-180 63,-289 63,-326l-681 -167zm833 334c-46,102 -81,224 -104,368 -23,143 -34,243 -34,298 83,84 212,167 388,250 176,84 283,139 320,167 74,-324 111,-634 111,-930 -120,-19 -220,-35 -299,-49 -78,-14 -206,-49 -382,-104zm-902 416c-213,0 -361,21 -445,63 -83,42 -139,113 -166,215 55,9 83,51 83,125 -9,74 -14,144 -14,209 102,194 215,398 340,611 125,213 204,398 236,555 33,158 58,283 77,375 18,93 74,172 166,236 65,65 158,56 278,-27 -92,0 -166,-24 -222,-70 -9,-92 -23,-208 -42,-347 -18,-139 -78,-269 -180,-389 -56,9 -102,-9 -139,-56 46,-46 81,-118 104,-215 23,-97 53,-211 90,-340 102,-56 153,-148 153,-278 0,-74 -14,-153 -42,-236 -27,-83 -55,-162 -83,-236l-194 -195zm444 417l14 195c120,27 280,138 479,333 199,194 359,310 479,347l28 -389c-120,-139 -268,-250 -444,-333 -176,-83 -361,-134 -556,-153zm-1111 14l-264 583c37,-18 102,-41 195,-69 92,-28 152,-56 180,-83 -83,-47 -125,-121 -125,-223 9,-92 14,-162 14,-208zm1264 417c-121,92 -167,171 -139,236 -19,65 0,120 56,166 55,47 92,79 111,98 74,37 125,25 152,-35 28,-60 56,-118 84,-174 -65,-102 -116,-176 -153,-222 -37,-46 -74,-69 -111,-69zm-375 458c0,148 42,278 125,389 129,139 222,241 278,305 139,28 259,144 361,348 102,203 217,319 347,347 -74,18 -134,32 -181,42 28,74 100,155 216,243 115,88 178,159 187,215 -120,-65 -227,-123 -319,-174 -93,-51 -162,-109 -209,-173l153 208 -28 42c-120,-28 -210,-95 -270,-202 -61,-106 -114,-238 -160,-396 -204,28 -354,109 -452,243 -97,135 -155,246 -173,334 -19,88 -28,183 -28,285 0,111 9,229 28,354 18,125 51,275 97,451 -46,-9 -88,-46 -125,-111 -37,-65 -60,-102 -69,-111 0,65 0,130 0,194l-56 -14c-55,-194 -83,-370 -83,-527 0,-93 7,-199 21,-320 13,-120 25,-213 34,-278 -83,-18 -152,-23 -208,-13 -56,120 -95,250 -118,388 -23,139 -44,301 -63,487 -46,-75 -69,-158 -69,-250 0,-75 23,-190 69,-348 47,-157 70,-273 70,-347 -56,65 -137,188 -243,368 -107,181 -174,290 -202,327 10,-121 68,-283 174,-487 106,-203 169,-338 188,-402l-125 -250c-47,-176 -139,-264 -278,-264 -250,46 -496,88 -736,125 231,-84 463,-167 694,-250l-14 -56c-166,-55 -303,-102 -410,-139 -106,-37 -192,-97 -256,-180l41 -42c204,93 384,130 542,111 -28,-83 -42,-148 -42,-194 0,-47 23,-74 70,-84 64,167 132,318 201,452 69,134 155,224 257,271 9,120 49,227 118,319 69,93 174,204 313,333 27,-18 60,-41 97,-69 -56,-93 -60,-167 -14,-222 46,-56 69,-125 69,-209 0,-74 -11,-141 -34,-201 -24,-60 -58,-155 -105,-285 -46,-129 -92,-277 -138,-444 -75,-195 -172,-333 -292,-417 -93,0 -160,26 -202,77 -41,51 -99,145 -173,284 -28,-9 -42,-30 -42,-62 0,-33 0,-67 0,-104 -222,64 -416,157 -583,277 -167,121 -259,278 -278,473 19,83 67,463 146,1139 79,675 211,1162 396,1458 55,46 129,79 222,97 93,19 185,28 278,28 166,-9 287,-14 361,-14 18,-9 60,-44 125,-104 65,-60 125,-95 180,-104 19,148 5,277 -41,389 0,-47 30,-125 90,-237 60,-111 90,-180 90,-208 0,-55 -32,-111 -97,-167 46,-46 74,-64 83,-55 176,139 399,208 667,208 111,0 197,-7 257,-21 60,-14 113,-44 160,-90 46,-46 111,-153 194,-319 121,-195 227,-417 320,-667 92,-250 139,-477 139,-681 0,-259 -79,-495 -237,-708l-180 208c-130,56 -218,61 -264,14l97 -139c-9,-64 26,-148 104,-250 79,-101 123,-162 132,-180 -18,-56 -65,-109 -139,-160 -74,-51 -129,-95 -166,-132 -47,-9 -91,14 -132,70 -42,55 -81,106 -118,152 -93,47 -181,35 -264,-34 -83,-70 -162,-142 -236,-216 -19,-55 -28,-106 -28,-152 0,-84 28,-162 83,-236 -46,46 -88,120 -125,222 -37,102 -60,176 -69,222zm1167 458c-102,74 -139,135 -112,181l112 -181zm-945 348c0,46 14,85 42,118 28,32 60,30 97,-7l-139 -111zm-375 472c9,55 23,106 42,153 65,-65 92,-107 83,-125 9,-47 0,-68 -28,-63 -27,5 -60,16 -97,35zm458 2028l-69 -28 69 28zm-472 0c-83,231 -166,465 -250,701 -83,236 -134,456 -153,660l181 14c0,-195 35,-456 104,-785 70,-329 109,-526 118,-590zm153 83c-83,426 -167,852 -250,1278 74,-19 137,-33 187,-42 51,-9 86,-32 105,-69l250 -1084c-102,-28 -199,-55 -292,-83zm458 55c-83,204 -152,396 -208,577 -56,180 -83,354 -83,521l55 0c19,-158 60,-364 125,-618 65,-255 102,-415 111,-480zm-1944 98l-208 652c148,149 296,264 444,348 148,83 310,125 486,125l278 -1125c-222,46 -445,92 -667,139 -129,0 -241,-47 -333,-139zm917 -2695c64,-92 152,-125 263,-97 -9,37 -39,65 -90,83 -51,19 -99,37 -146,56l-27 -42z"
   id="path750" /></g></svg>
