<?xml version="1.0" encoding="UTF-8" standalone="no"?>
<!DOCTYPE svg PUBLIC "-//W3C//DTD SVG 20010904//EN"
"http://www.w3.org/TR/2001/REC-SVG-20010904/DTD/svg10.dtd">
<!-- Created with Sodipodi ("http://www.sodipodi.com/") -->
<svg
   xmlns="http://www.w3.org/2000/svg"
   xmlns:odm="http://product.corel.com/CGS/11/cddns/"
   xml:space="preserve"
   width="723pt"
   height="414pt"
   style="shape-rendering:geometricPrecision; text-rendering:geometricPrecision; image-rendering:optimizeQuality; fill-rule:evenodd"
   viewBox="0 0 8268 11692"
   xmlns:sodipodi="http://sodipodi.sourceforge.net/DTD/sodipodi-0.dtd"
   xmlns:xlink="http://www.w3.org/1999/xlink"
   id="svg710"
   sodipodi:version="0.34"
   sodipodi:docname="D:\Dokumenty\Wikipedie\images\svg\ASL\Sign language_P.svg"><sodipodi:namedview
   id="base" /><defs
   id="defs711"><style
   type="text/css"
   id="style712"><![CDATA[
    .fil0 {fill:#1F1A17}
   ]]></style></defs><g
   id="Layer 1"
   transform="matrix(2.033346,0,0,2.033431,-4163.068,-4238.801)"><path
   class="fil0"
   d="M5935 2154c713,0 1245,40 1597,118 352,79 630,322 834,729 129,139 247,285 354,438 106,153 210,322 312,507l-291 972c-75,56 -255,206 -542,451 -287,246 -570,369 -847,369 -195,37 -331,-70 -410,-320 -79,-250 -141,-398 -188,-444l-41 -56c-509,195 -1019,389 -1528,583 -361,84 -688,227 -979,431 -292,204 -553,468 -785,792 -65,55 -130,102 -194,139 -65,37 -153,55 -264,55 -56,0 -97,-5 -125,-14 9,139 -21,271 -91,396 -69,125 -136,243 -201,354 -65,74 -143,111 -236,111 -74,0 -139,-9 -194,-27 -56,-19 -98,-33 -125,-42 -37,-195 -61,-384 -70,-570 -9,-185 -14,-402 -14,-652 0,-158 5,-398 14,-723 9,-324 14,-569 14,-736l444 -1000 -41 -41c-398,0 -952,20 -1660,62 -708,42 -1086,63 -1132,63 -120,-28 -208,-61 -264,-98 -55,-37 -92,-99 -111,-187 -18,-88 -32,-174 -42,-257 0,-37 14,-79 42,-125l97 -69c380,-47 776,-102 1188,-167 412,-65 761,-171 1048,-320 732,0 1422,-134 2070,-402 305,0 738,-47 1298,-139 561,-93 896,-144 1007,-153l56 -28zm1056 181c-232,-65 -482,-97 -750,-97 -287,0 -716,57 -1285,173 -570,116 -984,174 -1243,174 -47,9 -74,39 -84,90 -9,51 -27,86 -55,104 -28,-9 -49,-23 -63,-41 -14,-19 -20,-33 -20,-42 -167,18 -325,51 -473,97 -148,46 -296,93 -444,139 -315,46 -630,93 -945,139l-69 -70 -14 167 -55 -55c-47,9 -88,18 -125,27l-70 -69 -694 236c-111,46 -176,56 -195,28 -361,46 -602,78 -722,97 -120,19 -269,65 -444,139 0,139 46,255 138,347 213,65 412,97 598,97 129,0 236,-14 319,-41 83,-28 125,-84 125,-167 0,-83 28,-120 83,-111l14 250c56,9 148,14 278,14 139,0 245,-5 320,-14 74,-9 180,-28 319,-56 37,-83 67,-148 90,-194 23,-46 63,-42 118,14 10,111 74,166 195,166 46,0 118,-9 215,-27 97,-19 164,-23 201,-14 37,-19 95,-14 174,14 79,27 132,41 160,41 65,0 111,-41 139,-125 37,-37 88,-106 152,-208 65,-102 112,-176 139,-222 65,37 98,78 98,125 0,28 -24,78 -70,153 -46,74 -69,129 -69,166l166 0c111,0 204,19 278,56 148,-28 292,60 431,264 139,203 240,319 305,347 47,-46 70,-111 70,-195 0,-55 -10,-113 -28,-173 -19,-60 -37,-123 -56,-188 47,10 86,65 118,167 33,102 54,162 63,181 37,-10 79,-58 125,-146 46,-88 92,-128 139,-118 -102,314 -449,689 -1042,1125 -592,435 -889,898 -889,1389 47,74 88,131 125,173 37,42 88,63 153,63 -148,-121 -222,-264 -222,-431 55,-102 122,-187 201,-257 79,-69 169,-104 271,-104 83,37 160,90 229,160 70,69 109,141 118,215 47,-56 109,-116 188,-181 78,-64 159,-134 243,-208l-153 -69c-9,-19 -60,-79 -153,-181 -92,-102 -139,-185 -139,-250l250 236 -277 -347c64,-9 127,19 187,83 60,65 100,102 118,111l-28 -83 42 -28 -167 -194c102,28 188,86 257,173 70,88 114,188 132,299 -37,9 -44,39 -21,90 24,51 30,91 21,118 158,-166 368,-298 632,-395 264,-98 521,-193 771,-285 56,0 141,-39 257,-118 116,-79 211,-95 285,-49 259,0 493,-120 701,-361 208,-241 405,-472 590,-694 47,0 111,-14 195,-42 83,-28 139,-42 166,-42 56,0 107,19 153,56 -102,18 -166,42 -194,69 148,148 294,306 437,473 144,166 262,328 354,486 75,-28 149,-84 223,-167 74,-83 120,-204 139,-361 55,-130 83,-250 83,-361 0,-250 -130,-523 -389,-820 -222,-231 -440,-467 -653,-708 -65,-46 -201,-90 -410,-132 -208,-42 -335,-72 -381,-90zm-3473 1680c-46,0 -139,-11 -277,-34 -139,-24 -227,-35 -264,-35 -111,0 -199,32 -264,97 241,278 514,468 819,570 37,0 97,11 181,34 83,23 139,35 166,35 65,0 116,-37 153,-111 -46,-56 -146,-118 -298,-188 -153,-69 -234,-108 -243,-118 55,-9 118,-4 187,14 69,19 137,37 201,56 -37,-37 -115,-74 -236,-111 -120,-37 -189,-84 -208,-139l236 28 -153 -98zm-1027 84c-158,240 -297,514 -417,819 83,0 139,9 167,28l0 153c-84,64 -153,106 -209,125 0,166 5,328 14,486 9,157 19,315 28,472 0,65 -5,134 -14,208 -9,74 -14,130 -14,167l83 56c-18,83 -50,148 -97,194 -37,139 -14,227 70,264 37,65 55,125 55,180 0,56 -9,112 -28,167 -18,56 -41,120 -69,195l333 41c74,-46 128,-109 160,-187 32,-79 67,-153 104,-223 37,-69 56,-150 56,-243 0,-83 -35,-210 -104,-382 -70,-171 -105,-289 -105,-354 0,-92 24,-180 70,-264 0,-46 39,-122 118,-229 79,-106 118,-178 118,-215 0,-56 -51,-102 -153,-139l97 -42 -41 -69c18,-37 48,-42 90,-14 42,28 72,42 90,42 130,-176 218,-389 264,-639 -129,-167 -241,-296 -333,-389 -93,-93 -204,-162 -333,-208zm4694 180c-93,74 -93,134 0,181 19,-19 35,-35 49,-49 13,-14 30,-25 48,-35 -9,56 -14,112 -14,167 0,74 28,116 84,125 18,130 64,264 139,403 74,139 148,273 222,403 83,0 173,-35 271,-105 97,-69 169,-145 215,-229 -65,-240 -181,-449 -347,-625 -167,-176 -287,-301 -361,-375 -130,-9 -232,37 -306,139zm-167 209l-41 83 69 14c19,-19 21,-37 7,-56 -14,-18 -25,-32 -35,-41zm-3666 236c-111,55 -148,129 -111,222 111,0 208,-51 291,-153 -37,-46 -97,-69 -180,-69zm3805 69l347 570c-92,-186 -185,-375 -277,-570l-70 0zm-111 70c65,129 139,263 222,402 84,139 162,250 236,334 -120,-241 -201,-394 -243,-459 -41,-64 -113,-157 -215,-277zm-97 83c18,92 65,211 139,354 74,144 120,243 139,299 -10,-74 -40,-167 -91,-278 -51,-111 -113,-236 -187,-375zm-3528 69c-92,56 -171,65 -236,28 -74,74 -93,139 -56,195 121,-47 218,-121 292,-223zm-333 1056c-37,18 -74,42 -111,69 -37,28 -98,84 -181,167 0,74 26,144 76,208 51,65 91,116 119,153 46,28 83,42 111,42 64,0 113,-35 145,-104 33,-70 63,-137 91,-202 -47,-28 -91,-74 -132,-139 -42,-64 -81,-129 -118,-194zm125 14c9,9 32,44 69,104 37,60 74,81 111,62 -9,-74 -69,-129 -180,-166zm-1167 1264l14 -153 -14 153zm2833 -2764c186,148 299,252 341,312 41,60 62,146 62,257 -46,-46 -111,-141 -194,-285 -84,-143 -153,-238 -209,-284zm2792 -2000c120,83 232,208 333,375 -92,-84 -166,-151 -222,-202 -55,-51 -92,-108 -111,-173zm-4042 1250c56,-167 102,-283 139,-347 -18,27 -11,76 21,145 33,70 26,118 -21,146l-139 56z"
   id="path714" /></g></svg>
