<?xml version="1.0" encoding="UTF-8" standalone="no"?>
<!DOCTYPE svg PUBLIC "-//W3C//DTD SVG 20010904//EN"
"http://www.w3.org/TR/2001/REC-SVG-20010904/DTD/svg10.dtd">
<!-- Created with Sodipodi ("http://www.sodipodi.com/") -->
<svg
   xmlns="http://www.w3.org/2000/svg"
   xmlns:odm="http://product.corel.com/CGS/11/cddns/"
   xml:space="preserve"
   width="373pt"
   height="370pt"
   style="shape-rendering:geometricPrecision; text-rendering:geometricPrecision; image-rendering:optimizeQuality; fill-rule:evenodd"
   viewBox="0 0 8268 11692"
   xmlns:sodipodi="http://sodipodi.sourceforge.net/DTD/sodipodi-0.dtd"
   xmlns:xlink="http://www.w3.org/1999/xlink"
   id="svg692"
   sodipodi:version="0.34"
   sodipodi:docname="D:\Dokumenty\Wikipedie\images\svg\ASL\Sign language_M.svg"><sodipodi:namedview
   id="base" /><defs
   id="defs693"><style
   type="text/css"
   id="style694"><![CDATA[
    .fil0 {fill:#1F1A17}
   ]]></style></defs><g
   id="Layer 1"
   transform="matrix(2.275049,0,0,2.2752,-4984.398,-7024.805)"><path
   class="fil0"
   d="M3779 3491c129,-223 324,-334 583,-334 204,0 352,93 444,278 74,19 169,5 285,-42 116,-46 206,-55 271,-27 204,194 412,389 625,583 213,213 393,435 542,667 0,416 -75,796 -223,1139 -148,342 -379,629 -694,861 -74,9 -164,74 -271,194 -106,121 -201,181 -285,181 -46,0 -97,-14 -152,-42 -56,-56 -112,-83 -167,-83 -56,0 -114,27 -174,83 -60,56 -134,153 -222,292 -88,139 -183,379 -285,722 -111,74 -236,125 -375,153 -139,27 -291,41 -458,41 -194,0 -375,-14 -542,-41 -166,-28 -375,-74 -625,-139 -102,-111 -208,-239 -319,-382 -111,-144 -195,-276 -250,-396 65,-176 111,-299 139,-368 28,-69 74,-146 139,-229 -19,-130 -28,-227 -28,-292 0,-259 60,-542 180,-847 167,-361 292,-639 375,-833 84,-195 156,-341 216,-438 60,-97 132,-164 215,-201 157,27 333,-56 528,-250 194,-195 370,-278 528,-250zm-139 97c-93,18 -197,86 -313,201 -116,116 -197,188 -243,216 -120,27 -220,51 -299,69 -78,19 -145,69 -201,153 -130,296 -261,606 -396,930 -134,324 -234,616 -298,875 -37,74 -56,162 -56,264 0,65 14,167 42,306 28,139 41,245 41,319 0,84 -13,160 -41,229 -28,70 -84,137 -167,202 120,204 283,361 486,472 204,111 426,153 667,125l236 -611 -569 55c-93,10 -165,-39 -216,-145 -51,-107 -99,-169 -146,-188 84,28 174,56 271,83 97,28 202,42 313,42 241,-46 428,-102 562,-167 135,-64 229,-175 285,-333 -19,-28 -79,-136 -181,-326 -101,-190 -185,-327 -250,-410l-263 236c-10,-37 6,-83 48,-139 42,-55 63,-97 63,-125 -56,56 -114,111 -174,167 -60,55 -118,88 -174,97 102,-111 190,-208 264,-292 74,-83 102,-175 84,-277 0,-93 -72,-160 -216,-202 -143,-41 -236,-104 -277,-187 -42,-84 -58,-130 -49,-139 46,46 100,90 160,132 60,42 118,58 173,48 -37,-46 -74,-90 -111,-131 -37,-42 -60,-100 -69,-174l97 -42c352,574 704,1148 1056,1722l0 -152c55,-93 138,-139 250,-139l111 28c-28,-74 -58,-195 -91,-362 -32,-166 -71,-300 -118,-402l-333 139c-19,-47 -58,-58 -118,-35 -60,23 -104,16 -132,-21 28,-83 93,-141 194,-174 102,-32 181,-57 237,-76 -65,-65 -98,-171 -98,-319 0,-56 -4,-121 -14,-195 -9,-74 -64,-134 -166,-180 0,-19 -19,-58 -56,-118 -37,-61 -37,-114 0,-160 28,46 74,111 139,194 65,84 107,139 125,167 46,-37 70,-70 70,-97 -65,-84 -125,-167 -181,-250 46,-19 102,7 167,76 64,70 125,100 180,90 148,47 243,123 285,230 42,106 62,243 62,409l0 306c0,129 10,222 28,278 -28,37 -51,51 -69,41 -19,121 -28,213 -28,278 0,65 23,111 69,139l112 -111c55,-28 106,-42 152,-42 28,0 58,5 91,14 32,9 67,19 104,28 83,-111 141,-234 173,-368 33,-134 49,-285 49,-452 0,-83 -5,-215 -14,-395 -9,-181 -14,-313 -14,-396l-361 69c0,-28 0,-55 0,-83 -92,0 -180,0 -264,0 -28,-102 30,-185 174,-250 143,-65 220,-107 229,-125 -278,-195 -493,-340 -646,-438 -153,-97 -298,-164 -437,-201zm1777 -56c-46,-46 -111,-69 -194,-69 -28,0 -74,9 -139,28 -65,18 -116,32 -153,41l792 917c28,120 79,181 153,181 46,0 127,-24 243,-70 116,-46 197,-65 243,-55l-945 -973zm-1166 -277c-121,46 -206,92 -257,138 -51,47 -81,102 -90,167 185,121 379,243 583,368 204,125 370,262 500,410 37,102 65,222 83,361 19,139 28,264 28,375 0,148 -14,313 -42,493 -27,181 -46,315 -55,403 -9,88 -60,197 -153,326 -93,130 -139,222 -139,278 0,37 14,79 42,125l28 -42c64,-83 118,-150 159,-201 42,-51 104,-67 188,-49 83,37 146,72 187,105 42,32 58,67 49,104 120,-167 201,-336 243,-507 42,-172 99,-595 174,-1271 -28,-46 -70,-70 -125,-70 -102,10 -174,14 -216,14 -41,0 -67,-4 -76,-14l222 -69c-130,19 -222,28 -278,28 -46,0 -83,-19 -111,-56l431 -139 -209 -236c-18,-28 -155,-199 -409,-514 -255,-314 -507,-490 -757,-527zm583 1055c-148,56 -296,107 -444,153l500 -83 -56 -70zm-208 181c55,9 116,0 180,-28 -74,9 -134,18 -180,28zm1778 125l-84 -28 -111 28 195 0zm-514 69l-111 1153c37,37 78,55 125,55 74,0 152,-4 236,-13 64,-186 134,-371 208,-556 65,-204 97,-398 97,-583 -120,27 -213,41 -278,41 -46,0 -92,-14 -138,-41 9,-28 30,-42 62,-42 32,0 67,0 104,0l-305 -14zm-2111 375c0,130 37,246 111,347 74,102 176,181 305,236l28 -83c19,-74 -16,-129 -104,-167 -88,-37 -141,-74 -160,-111 -9,-55 -14,-139 -14,-250 0,-111 5,-189 14,-236 -74,-28 -123,-14 -146,42 -23,55 -34,130 -34,222zm250 -42c9,75 16,142 20,202 5,60 44,76 118,48l0 -97c10,-37 5,-90 -13,-159 -19,-70 -42,-105 -70,-105 -37,37 -55,74 -55,111zm111 875l0 -111 0 111zm1639 70l-112 333 139 14c74,-65 132,-118 174,-160 42,-41 67,-90 76,-145l-277 -42zm-1264 305c-102,56 -148,107 -139,153 120,56 208,65 264,28 37,-46 30,-86 -21,-118 -51,-32 -86,-53 -104,-63zm-500 153c-56,37 -84,60 -84,70 19,0 61,-10 125,-28l-41 -42zm1069 84c19,83 60,101 125,55 -46,-28 -88,-46 -125,-55zm-1208 180l69 0c121,-37 185,-79 195,-125 -84,0 -148,0 -195,0 -74,0 -97,42 -69,125zm1055 -111c-37,46 -69,88 -97,125 111,56 199,83 264,83 37,0 74,-9 111,-27 9,-56 -28,-98 -111,-125 -83,-28 -139,-47 -167,-56zm-708 125c-46,83 -125,125 -236,125 -102,-9 -176,-14 -222,-14 -111,0 -172,60 -181,181 139,46 292,69 458,69 84,0 162,-14 237,-42 55,-37 118,-83 187,-138 69,-56 109,-116 118,-181 -18,-65 -83,-97 -194,-97 -84,0 -139,32 -167,97zm-2389 56l-208 472c176,-93 264,-250 264,-472l-56 0zm1667 319c9,56 18,107 28,153 46,28 106,41 180,41 65,0 107,-23 125,-69l-333 -125zm444 153l111 0c-18,-9 -41,-19 -69,-28 -28,-9 -42,0 -42,28zm-666 0c-75,111 -142,231 -202,361 -60,130 -90,231 -90,305 83,-111 153,-224 208,-340 56,-116 84,-224 84,-326zm-56 778c176,46 296,-10 361,-167 65,-157 130,-310 195,-458 -84,-56 -153,-84 -209,-84 -92,0 -173,116 -243,347 -69,232 -104,352 -104,362zm681 -653c-93,139 -156,243 -188,312 -32,70 -58,155 -76,257 64,-74 125,-162 180,-264 56,-101 107,-203 153,-305l-69 0zm152 97l-236 431c65,-19 111,-70 139,-153 28,-84 60,-176 97,-278zm-916 528l41 -209 -111 209 70 0zm1944 -1931c148,10 296,14 445,14 -37,65 -102,97 -195,97 -65,0 -143,-18 -236,-55l-14 -56zm-1139 97c-55,65 -104,116 -146,153 -41,37 -95,42 -159,14l-28 -42 333 -125zm500 -194c37,-28 111,-42 222,-42 75,0 130,-4 167,-14 0,65 -37,98 -111,98 -74,0 -120,4 -139,14 -46,-19 -92,-37 -139,-56zm-2055 -958l55 361c-55,-46 -83,-121 -83,-222 0,-37 9,-84 28,-139z"
   id="path696" /></g></svg>
