<?xml version="1.0" encoding="UTF-8" standalone="no"?>
<!DOCTYPE svg PUBLIC "-//W3C//DTD SVG 20010904//EN"
"http://www.w3.org/TR/2001/REC-SVG-20010904/DTD/svg10.dtd">
<!-- Created with Sodipodi ("http://www.sodipodi.com/") -->
<svg
   xmlns="http://www.w3.org/2000/svg"
   xmlns:odm="http://product.corel.com/CGS/11/cddns/"
   xml:space="preserve"
   width="533pt"
   height="830pt"
   style="shape-rendering:geometricPrecision; text-rendering:geometricPrecision; image-rendering:optimizeQuality; fill-rule:evenodd"
   viewBox="0 0 8268 11692"
   xmlns:sodipodi="http://sodipodi.sourceforge.net/DTD/sodipodi-0.dtd"
   xmlns:xlink="http://www.w3.org/1999/xlink"
   id="svg776"
   sodipodi:version="0.34"
   sodipodi:docname="D:\Dokumenty\Wikipedie\images\svg\ASL\Sign language_Z.svg"><sodipodi:namedview
   id="base" /><defs
   id="defs777"><style
   type="text/css"
   id="style778"><![CDATA[
    .fil0 {fill:#1F1A17}
   ]]></style></defs><g
   id="Layer 1"
   transform="matrix(1.116861,0,0,1.116867,347.8413,-290.6241)"><path
   class="fil0"
   d="M50 -200c787,121 1447,216 1979,285 533,69 1044,104 1535,104 -157,130 -400,301 -729,514 -329,213 -683,445 -1063,695 -231,120 -426,268 -583,444 130,37 331,69 604,97 273,28 414,42 424,42 37,-19 51,-53 41,-104 -9,-51 -18,-100 -27,-146 120,18 289,81 507,187 217,107 377,174 479,202 -111,37 -278,88 -500,153 -222,64 -398,111 -528,138 0,-18 14,-55 42,-111 27,-55 14,-97 -42,-125l-2431 -55c843,-426 1447,-739 1813,-938 366,-199 752,-460 1160,-784l-153 -56c-296,0 -820,-9 -1570,-28 -750,-18 -1143,-28 -1180,-28 55,-46 97,-127 125,-243 28,-115 60,-196 97,-243zm4000 2195c111,65 220,150 326,257 107,106 276,308 507,604 74,120 195,266 362,437 166,172 358,505 576,1000 218,496 530,1220 937,2174 0,231 40,599 118,1104 79,505 119,840 119,1007 0,287 -47,565 -139,833 0,158 18,322 55,493 37,172 74,336 111,494l-791 666c-269,84 -533,125 -792,125 -185,0 -331,-7 -438,-21 -106,-14 -275,-48 -506,-104 -47,-129 -88,-278 -125,-444 -38,-167 -70,-329 -98,-486 -333,-213 -629,-526 -889,-938 -259,-412 -435,-697 -527,-854 -250,-250 -401,-407 -452,-472 -51,-65 -85,-158 -104,-278 0,-333 46,-685 139,-1056 167,-166 343,-250 528,-250 139,-194 261,-356 368,-486 106,-129 238,-194 396,-194 55,0 97,4 125,14 46,-47 150,-167 312,-361 162,-195 327,-292 493,-292l42 -28c-37,-185 -169,-470 -396,-854 -227,-384 -350,-609 -368,-674 -213,-296 -359,-513 -438,-652 -78,-139 -118,-315 -118,-528 65,-102 158,-171 278,-208 121,-38 250,-47 389,-28zm-528 236c-27,204 3,382 91,535 88,152 238,363 451,632l139 27c259,-65 518,-134 778,-208 -28,-83 -81,-171 -160,-264 -79,-93 -164,-194 -257,-305 -93,-112 -204,-239 -333,-382 -130,-144 -255,-216 -375,-216 -111,0 -223,60 -334,181zm681 1347c0,83 32,183 97,299 65,115 130,224 195,326 74,37 178,32 312,-14 134,-46 206,-69 215,-69 37,0 104,-35 202,-104 97,-70 159,-105 187,-105 46,0 84,28 111,84 -120,83 -254,162 -402,236 -149,74 -301,139 -459,194 9,74 58,211 146,410 88,199 123,368 104,507l70 0c46,-37 104,-65 173,-83 70,-19 137,-28 202,-28 194,9 338,14 430,14 139,0 246,-42 320,-125 -241,-537 -429,-940 -563,-1209 -134,-268 -289,-486 -465,-652 -204,55 -375,104 -514,145 -139,42 -259,100 -361,174zm-333 2222c46,0 115,-23 208,-69 92,-46 162,-70 208,-70 65,0 116,33 153,98 -361,64 -634,213 -819,444 -10,139 18,296 83,472 92,-9 176,-16 250,-21 74,-4 134,-6 180,-6 297,0 556,46 778,138 -46,-176 -88,-314 -125,-416 -37,-102 -97,-195 -180,-278 18,-28 48,-35 90,-21 42,14 90,26 146,35 -28,-296 -51,-593 -70,-889 -102,-83 -185,-125 -250,-125 -111,0 -238,111 -382,333 -143,223 -233,348 -270,375zm2236 -583c-102,102 -299,160 -591,174 -291,13 -488,62 -590,145l70 792c46,-28 85,-86 118,-174 32,-88 62,-136 90,-145 28,83 9,194 -56,333 -65,139 -97,227 -97,264 0,46 19,88 56,125 111,-74 226,-181 347,-320 120,-138 259,-296 417,-472l-42 111 500 -375c-37,-129 -65,-234 -83,-312 -19,-79 -65,-128 -139,-146zm-3098 1250l153 -83c28,37 30,64 7,83 -23,18 -53,32 -90,42l97 0c-9,27 -35,53 -76,76 -42,23 -67,44 -77,63 -83,0 -134,55 -152,166 -19,111 -33,213 -42,306 83,120 157,217 222,291 65,74 148,144 250,209 -9,-37 -14,-93 -14,-167 0,-130 21,-248 63,-354 41,-107 108,-211 201,-313 -37,-222 -69,-444 -97,-666 74,-121 153,-241 236,-361 -167,0 -301,81 -403,243 -102,162 -194,317 -278,465zm3320 -625c-213,102 -373,206 -479,312 -107,107 -327,355 -660,744 56,64 143,108 264,131 120,24 199,35 236,35 130,-83 262,-201 396,-354 134,-153 234,-262 298,-326 -37,37 -94,134 -173,291 -79,158 -160,260 -243,306 28,0 74,-21 139,-63 64,-41 111,-48 139,-20l-223 222c10,18 47,37 111,55 65,19 121,33 167,42 93,-28 157,-102 195,-222 27,46 18,113 -28,201 -47,88 -70,137 -70,146 93,65 165,137 216,215 51,79 99,178 145,299 19,-46 19,-116 0,-208 -18,-93 -27,-149 -27,-167 0,-65 27,-116 83,-153l-56 0c-64,-343 -120,-637 -166,-882 -47,-245 -135,-447 -264,-604zm-3917 1583l236 -180 -125 180 139 -55c-65,74 -122,136 -173,187 -51,51 -77,100 -77,146 0,19 23,65 70,139 46,28 178,141 395,340 218,199 392,299 521,299 93,0 190,-37 292,-111l0 139c56,0 120,-26 194,-77 74,-51 125,-81 153,-90 -268,-148 -504,-306 -708,-472 -204,-167 -398,-375 -583,-625l-98 -14c19,-37 33,-151 42,-340 9,-190 56,-327 139,-410 -185,0 -299,53 -340,160 -42,106 -63,270 -63,493 0,139 -5,236 -14,291zm1250 -611c-129,84 -204,185 -222,306 -19,120 -28,203 -28,250 0,111 37,185 111,222l42 -306c46,-111 104,-208 174,-291 69,-84 155,-125 257,-125 111,74 203,139 277,194 74,56 111,125 111,209 -83,185 -159,337 -229,458 -69,120 -183,162 -340,125 426,250 866,375 1319,375 158,-19 297,42 417,180 120,139 218,227 292,264 0,19 -23,28 -70,28 -74,-46 -139,-86 -194,-118 -56,-32 -102,-53 -139,-62 111,148 192,250 243,305 51,56 118,97 201,125 -83,0 -238,-104 -465,-312 -227,-209 -419,-299 -576,-271 -37,0 -60,28 -70,83 -9,56 -21,111 -34,167 -14,55 -21,106 -21,153 0,138 37,261 111,368 74,106 259,280 555,520 112,74 260,112 445,112 102,0 185,-7 250,-21 65,-14 180,-40 347,-77 111,-65 206,-164 285,-298 79,-135 118,-327 118,-577 0,-92 -5,-178 -14,-257 -9,-78 -19,-159 -28,-243l-111 361c-102,37 -190,79 -264,125 -74,47 -139,51 -194,14 55,-55 92,-97 111,-125 129,-46 215,-118 257,-215 41,-97 62,-225 62,-382 -9,-157 -14,-273 -14,-347 -101,-139 -178,-234 -229,-285 -51,-51 -122,-76 -215,-76 -259,0 -620,-102 -1083,-306 -463,-204 -815,-305 -1056,-305 -74,0 -148,0 -222,0 -83,27 -139,46 -167,55zm222 153c-83,56 -145,150 -187,285 -42,134 -63,238 -63,312 0,158 70,222 209,195 139,18 220,-68 243,-257 23,-190 67,-304 132,-341 -102,-120 -213,-185 -334,-194zm278 569l111 -250c-102,28 -139,112 -111,250zm-555 375c64,65 143,116 236,153 92,37 199,74 319,111 -92,10 -190,-14 -291,-69 -130,-93 -218,-158 -264,-195zm777 362c-55,9 -108,55 -159,138 -51,84 -109,146 -174,188 -65,42 -171,62 -319,62 -111,0 -216,-9 -313,-27 -97,-19 -197,-42 -298,-70l152 181c102,92 276,328 521,708 246,380 516,570 813,570l236 -28c74,-28 153,-58 236,-91 83,-32 134,-81 153,-145 -186,-93 -343,-223 -473,-389 -129,-167 -194,-347 -194,-542 0,-167 0,-292 0,-375 0,-130 -60,-190 -181,-180zm-513 250c101,0 157,-24 166,-70 -102,0 -157,23 -166,70zm2791 1222l84 639c27,-74 41,-144 41,-209 0,-55 -11,-129 -35,-222 -23,-93 -34,-162 -34,-208l-56 0zm-1319 111c-167,111 -313,197 -438,257 -125,60 -261,90 -409,90 111,19 252,-7 423,-76 171,-70 289,-109 354,-118 10,74 23,136 42,187 18,51 28,100 28,146l0 -486zm1194 42c-18,74 -16,175 7,305 23,130 35,204 35,222 -37,-55 -67,-139 -90,-250 -24,-111 -44,-185 -63,-222l-778 167c47,305 98,606 153,903 157,-19 306,-75 445,-167 138,-93 277,-213 416,-361 -9,-37 -18,-132 -28,-285 -9,-153 -41,-257 -97,-312zm-1125 138c0,204 12,378 35,521 23,144 58,317 104,521 74,0 120,-14 139,-42l-111 -638c-28,-121 -53,-207 -77,-257 -23,-51 -53,-86 -90,-105zm-958 278l125 584c83,83 183,131 298,145 116,14 276,21 480,21 0,-185 -10,-324 -28,-416 -19,-93 -65,-274 -139,-542 -56,9 -167,51 -333,125 -167,74 -301,102 -403,83zm708 -3111c-9,37 33,102 125,195 0,185 -28,356 -83,513 46,10 86,-9 118,-55 32,-46 53,-79 62,-97 19,-56 19,-132 0,-230 -18,-97 -27,-159 -27,-187 37,46 55,125 55,236 0,65 -9,144 -28,236 -18,37 -55,81 -111,132 -55,51 -139,100 -250,146 185,-167 255,-370 209,-611l-70 139 0 -417zm-28 500l0 83 0 -83z"
   id="path780" /></g></svg>
