<?xml version="1.0" encoding="UTF-8" standalone="no"?>
<!DOCTYPE svg PUBLIC "-//W3C//DTD SVG 20010904//EN"
"http://www.w3.org/TR/2001/REC-SVG-20010904/DTD/svg10.dtd">
<!-- Created with Sodipodi ("http://www.sodipodi.com/") -->
<svg
   xmlns="http://www.w3.org/2000/svg"
   xmlns:odm="http://product.corel.com/CGS/11/cddns/"
   xml:space="preserve"
   width="277pt"
   height="636pt"
   style="shape-rendering:geometricPrecision; text-rendering:geometricPrecision; image-rendering:optimizeQuality; fill-rule:evenodd"
   viewBox="0 0 8268 11692"
   xmlns:sodipodi="http://sodipodi.sourceforge.net/DTD/sodipodi-0.dtd"
   xmlns:xlink="http://www.w3.org/1999/xlink"
   id="svg722"
   sodipodi:version="0.34"
   sodipodi:docname="D:\Dokumenty\Wikipedie\images\svg\ASL\Sign language_R.svg"><sodipodi:namedview
   id="base" /><defs
   id="defs723"><style
   type="text/css"
   id="style724"><![CDATA[
    .fil0 {fill:#1F1A17}
   ]]></style></defs><g
   id="Layer 1"
   transform="matrix(2.149277,0,0,2.149193,-6298.59,-5907.937)"><path
   class="fil0"
   d="M5125 1163c74,-28 138,-41 194,-41 157,0 273,69 347,208 37,120 65,275 84,465 18,190 27,354 27,493l0 320c185,315 368,796 549,1444 180,648 308,1065 382,1250 0,426 -70,850 -208,1271 -139,421 -255,771 -348,1049 -83,138 -141,305 -173,500 -33,194 -49,412 -49,652l0 389c-111,158 -255,290 -430,396 -176,107 -445,192 -806,257l-931 -264c0,-111 -23,-289 -69,-535 -46,-245 -69,-414 -69,-507 -195,-194 -325,-395 -389,-604 -65,-208 -144,-576 -236,-1104 0,-352 25,-685 76,-1000 51,-315 132,-648 243,-1000 148,-74 296,-153 444,-236 -18,-111 -27,-199 -27,-264 0,-92 25,-176 76,-250 51,-74 118,-127 201,-160 84,-32 190,-48 320,-48l139 0c55,55 106,122 153,201 46,79 92,165 138,257 37,-92 61,-231 70,-417 9,-185 14,-291 14,-319l69 -667c-83,-259 -162,-523 -236,-791 0,-158 65,-278 195,-361 18,-158 39,-283 62,-375 23,-93 86,-162 188,-209zm41 56c-129,120 -180,278 -153,472 130,0 250,69 362,208 83,130 171,255 263,375l0 -347c0,-213 -13,-373 -41,-479 -28,-107 -86,-174 -174,-201 -88,-28 -173,-37 -257,-28zm-208 569c-130,93 -195,199 -195,320 0,74 42,201 125,382 84,180 125,294 125,340 37,93 93,139 167,139 176,-56 352,-111 528,-167l-222 -528c-74,-101 -151,-208 -230,-319 -78,-111 -178,-167 -298,-167zm805 1111c-111,-27 -215,-16 -312,35 -97,51 -188,100 -271,146 -28,55 -42,102 -42,139 0,83 24,164 70,243 46,79 92,155 139,229l541 -181 42 28 -264 111 375 -69c-28,-111 -46,-195 -55,-250l-223 -431zm-777 236l27 153c19,-18 24,-46 14,-83 -9,-37 -23,-60 -41,-70zm-14 278c-19,47 -33,123 -42,229 -9,107 -14,183 -14,230l0 361 403 -14c-19,-139 -39,-246 -63,-320 -23,-74 -85,-236 -187,-486l-97 0zm1097 278c-28,-9 -69,-14 -125,-14 -102,0 -194,14 -278,42 -83,28 -185,74 -305,139 37,194 67,326 90,396 23,69 72,136 146,201 37,-9 92,-14 166,-14 65,0 153,14 264,42 111,27 209,51 292,69l-56 -250 -194 -611zm-2028 278c-139,102 -199,222 -180,361 129,-157 296,-236 500,-236 83,0 143,18 180,55 -37,-148 -134,-222 -291,-222 -65,0 -135,14 -209,42zm236 264c-65,18 -120,51 -166,97 -47,46 -93,111 -139,194 -37,65 -28,107 28,125 55,19 143,42 263,70 -18,-56 -2,-111 49,-167 51,-55 104,-111 160,-167 -65,-46 -130,-97 -195,-152zm820 55c-56,19 -100,33 -132,42 -33,9 -53,28 -63,55 47,28 104,33 174,14 69,-18 141,-41 215,-69 -120,-28 -185,-42 -194,-42zm-431 167c-55,102 -102,176 -139,222 -37,46 -88,93 -152,139 -75,46 -165,37 -271,-28 -107,-65 -179,-88 -216,-69l0 83c195,259 378,433 549,521 171,88 331,118 479,90 0,37 -28,65 -83,84 -28,74 -9,138 55,194 65,56 125,107 181,153 -19,18 -35,30 -49,35 -14,4 -25,6 -34,6 9,84 48,167 118,250 69,84 122,149 159,195l-27 28c-102,-37 -188,-107 -257,-209 -70,-101 -118,-180 -146,-236 -296,389 -445,838 -445,1347 0,297 51,551 153,764 65,10 176,33 334,70 157,37 273,55 347,55 83,0 166,-14 250,-41 287,-167 458,-382 514,-646 55,-264 83,-632 83,-1104 -9,18 -26,32 -49,41 -23,10 -48,19 -76,28 46,-65 86,-134 118,-208 32,-74 49,-144 49,-209 0,-37 -5,-69 -14,-97l-736 -930 -195 236c-111,46 -180,51 -208,14l319 -431c-46,-55 -146,-120 -298,-194 -153,-74 -257,-125 -313,-153zm431 28c0,37 34,65 104,83 69,19 95,-9 76,-83l-180 0zm-722 180c101,-55 138,-111 111,-166 -28,9 -58,34 -91,76 -32,42 -39,72 -20,90zm1513 -125l-180 -41 -28 27 208 14zm-513 -14c-19,19 -33,47 -42,84 -9,37 0,65 28,83 37,0 97,-42 180,-125 -37,-37 -92,-51 -166,-42zm1000 223c-28,-10 -116,-35 -264,-77 -149,-41 -260,-62 -334,-62 -111,0 -199,37 -264,111 -18,74 3,153 63,236 60,83 109,157 146,222 37,65 106,97 208,97 65,0 162,-23 292,-69 129,-46 227,-70 291,-70l-41 -236 -97 -152zm-2695 -28c-102,46 -192,95 -271,146 -78,51 -118,136 -118,257 -28,46 -41,97 -41,152 0,65 18,125 55,181 37,55 88,83 153,83 -83,-92 -132,-155 -146,-187 -14,-33 -12,-72 7,-118l56 14c0,-19 0,-56 0,-112 0,-55 18,-87 55,-97 56,287 134,528 236,722 102,195 183,343 243,445 60,102 132,162 216,180 -38,-27 -56,-83 -56,-166l0 -153c18,-120 88,-162 208,-125 -18,-139 -30,-252 -34,-340 -5,-88 -26,-178 -63,-271 -65,-46 -132,-111 -201,-195 -70,-83 -169,-222 -299,-416zm1514 375l83 -153 -125 167 42 -14zm1319 153c-194,0 -398,46 -611,138l167 223c93,0 190,-30 292,-91 101,-60 176,-99 222,-118l-70 -152zm-2111 625c19,-195 56,-320 111,-375 -55,-28 -99,-37 -132,-28 -32,9 -48,32 -48,69 18,111 42,222 69,334zm2028 -292l56 0c18,46 -19,88 -111,125 -93,37 -144,79 -153,125 37,83 55,199 55,347 -9,241 -18,477 -27,708 83,-305 152,-567 208,-784 55,-218 97,-405 125,-563 -46,-9 -81,-7 -104,7 -23,14 -40,26 -49,35zm-2944 111c-19,-9 -56,-37 -111,-83 -56,-47 -102,-47 -139,0 -10,55 -35,192 -77,409 -41,218 -62,387 -62,507l0 153c92,408 173,755 243,1042 69,287 206,523 410,708l166 0c139,0 262,-16 368,-48 107,-33 197,-95 271,-188 -185,-352 -278,-718 -278,-1097 0,-195 23,-357 70,-486 -37,74 -72,150 -104,229 -33,79 -44,150 -35,215 9,74 14,130 14,167 0,46 -14,79 -42,97 -65,-74 -97,-162 -97,-264 0,-92 16,-185 48,-278 33,-92 68,-185 105,-277l-111 27c-65,-64 -125,-97 -181,-97 -65,0 -132,51 -201,153 -70,102 -118,162 -146,180l-28 -41 250 -375c-65,-93 -125,-197 -181,-313 -55,-115 -106,-229 -152,-340zm1069 28c-46,46 -42,148 14,305 37,-9 69,-30 97,-62 28,-33 65,-100 111,-202 -18,-37 -53,-53 -104,-48 -51,4 -90,7 -118,7zm-333 361c-56,18 -79,55 -70,111 19,46 42,93 70,139 74,-28 115,-74 125,-139 -10,-28 -21,-60 -35,-97 -14,-37 -44,-42 -90,-14zm1333 2153l111 0c0,-19 0,-42 0,-70 -65,-18 -102,5 -111,70zm-903 55l14 -69 -14 69zm945 931c28,-158 41,-296 41,-417 -9,-204 -13,-366 -13,-486 -47,167 -70,338 -70,514 0,148 14,278 42,389zm-1042 -861l-42 -28 42 28zm333 69c-9,-37 -25,-51 -48,-42 -23,10 -44,19 -63,28l0 1209c19,0 56,-5 111,-14l0 -1181zm84 0c0,93 -3,188 -7,285 -5,97 -7,197 -7,298 0,223 18,413 55,570l181 -28c120,-28 206,-79 257,-153 51,-74 76,-166 76,-277 0,-74 -14,-199 -41,-375 -28,-176 -33,-301 -14,-375l-500 55zm-320 -14c0,139 -4,276 -14,410 -9,134 -18,266 -27,396 0,139 14,278 41,416 56,-268 84,-523 84,-763l-28 -459 -56 0zm-444 222c-56,28 -130,42 -222,42 -84,0 -139,-32 -167,-97 0,130 9,282 28,458 18,176 37,329 55,459l611 125c10,-56 19,-174 28,-355 9,-180 14,-275 14,-284l0 -514 -347 166zm0 -1277l194 555c-37,-28 -71,-88 -104,-180 -32,-93 -62,-181 -90,-264l0 -111zm639 -2111c28,-84 78,-167 153,-250 74,-84 157,-149 250,-195 -84,56 -160,130 -230,222 -69,93 -127,167 -173,223zm305 55c19,-74 84,-139 195,-194 -19,55 -84,120 -195,194z"
   id="path726" /></g></svg>
